HIERARCHY
ROOT pelvis
{
  OFFSET 0 100 0
  CHANNELS 6 Xposition Yposition Zposition Zrotation Xrotation Yrotation
  JOINT pelvis_right_femur
  {
    OFFSET -10.78128 -3.44521 -0.5502486
    CHANNELS 3 Zrotation Xrotation Yrotation
    JOINT right_femur_tibia
    {
      OFFSET -0.8047443 -44.0398 -0.1307829
      CHANNELS 3 Zrotation Xrotation Yrotation
      JOINT right_tibia_foot
      {
        OFFSET 3.006224 -47.83518 -5
        CHANNELS 3 Zrotation Xrotation Yrotation
        End Site
        {
          OFFSET 0 -5 15
        }
      }
    }
  }
  JOINT pelvis_left_femur
  {
    OFFSET 10.78128 -3.44521 -0.5502486
    CHANNELS 3 Zrotation Xrotation Yrotation
    JOINT left_femur_tibia
    {
      OFFSET 0.8047443 -44.0398 -0.1307829
      CHANNELS 3 Zrotation Xrotation Yrotation
      JOINT left_tibia_foot
      {
        OFFSET -4.370144 -48.10324 -4.275266
        CHANNELS 3 Zrotation Xrotation Yrotation
        End Site
        {
          OFFSET 0 -5 15
        }
      }
    }
  }
  JOINT pelvis_spine1
  {
    OFFSET 0 6.468898 -3.129235
    CHANNELS 3 Zrotation Xrotation Yrotation
    JOINT spine1
    {
      OFFSET 0 23.15396 4.99043
      CHANNELS 3 Zrotation Xrotation Yrotation
      JOINT spine2
      {
        OFFSET 0 20.79997 -5.064912
        CHANNELS 3 Zrotation Xrotation Yrotation
        JOINT neck
        {
          OFFSET 0 14.38658 9.616178
          CHANNELS 3 Zrotation Xrotation Yrotation
          End Site
          {
            OFFSET 0 20 0
          }
        }
      }
      JOINT right_manubrium
      {
        OFFSET -5.722621 16.35077 3.967754
        CHANNELS 3 Zrotation Xrotation Yrotation
        JOINT right_clavicle
        {
          OFFSET -13.16364 1.694482 -4.693211
          CHANNELS 3 Zrotation Xrotation Yrotation
          JOINT right_humerus
          {
            OFFSET -28.5034 -0.3100689 -2.792744
            CHANNELS 3 Zrotation Xrotation Yrotation
            JOINT right_radius
            {
              OFFSET -25.15693 0.02248979 -1.271978
              CHANNELS 3 Zrotation Xrotation Yrotation
              End Site
              {
                OFFSET -15 0 0
              }
            }
          }
        }
      }
      JOINT left_manubrium
      {
        OFFSET 5.722621 16.35077 3.967754
        CHANNELS 3 Zrotation Xrotation Yrotation
        JOINT left_clavicle
        {
          OFFSET 13.16364 1.694482 -4.693211
          CHANNELS 3 Zrotation Xrotation Yrotation
          JOINT left_humerus
          {
            OFFSET 29.39168 -1.063119 -2.237045
            CHANNELS 3 Zrotation Xrotation Yrotation
            JOINT left_radius
            {
              OFFSET 24.59957 -0.9528479 0.9047498
              CHANNELS 3 Zrotation Xrotation Yrotation
              End Site
              {
                OFFSET 15 -0 -0
              }
            }
          }
        }
      }
    }
  }
}
MOTION
Frames: 13
Frame Time: 0.0416666666667
26.84669 103.2314 244.6548 1.742137 -8.619157 -5.633376 0.123096 22.91532 8.574999 -0 9.143078 -0 6.233895 -15.22276 1.592082 1.354914 -27.05405 -3.838296 -0 29.99357 -0 -8.780565 -5.641214 20.15303 -0.9318728 -0.3277886 10.0741 -1.969724 10.18189 -1.887943 2.270256 21.61662 5.189097 1.844289 -14.70674 6.895739 1.284242 -21.97006 11.80247 80.10175 22.02657 -5.795763 -0 0 26.84363 -26.37006 14.30177 13.5399 5.057641 -14.68794 -2.842141 -93.86885 21.79156 25.37086 0 0 -12.29412 -3.960784 6.525467 16.35595
27.4154 102.2489 251.4309 1.703809 -8.343902 -5.955861 -0.5606137 24.27091 8.566813 -0 13.36916 -0 7.097395 -14.90217 1.847451 0.6253646 -27.46692 -4.706189 -0 25.94373 -0 -8.643771 -5.940164 19.70109 -0.9943435 -0.5200567 9.978968 -2.266716 9.60421 -1.800945 2.397919 21.4805 5.142543 1.671278 -14.85369 7.137907 0.946363 -22.22034 11.45358 79.79947 21.48035 -4.676985 -0 0 27.96108 -26.56346 14.004 13.855 4.811057 -13.7337 -2.835202 -94.16616 22.03199 26.30296 0 0 -10.65346 -4.335683 6.44106 17.00514
28.06201 101.5791 258.6492 1.883206 -8.079039 -6.171284 -1.557608 24.9331 8.440523 -0 18.82237 -0 7.878023 -13.39658 1.680372 -0.7959515 -26.10535 -5.969814 -0 24.51392 -0 -8.526444 -6.038166 19.16281 -1.2984 -1.112923 9.940173 -2.446035 9.133347 -1.789515 2.557489 21.47283 5.099065 1.534579 -14.90708 7.403187 0.8321603 -21.94866 11.02288 79.96758 21.14211 -4.43793 -0 0 28.08882 -26.57283 13.78983 13.93622 4.555458 -12.91462 -2.866857 -94.22082 22.3431 26.70064 0 0 -9.335502 -4.632914 6.414889 17.57286
28.72817 101.4327 266.1655 2.195492 -8.022613 -6.164585 -2.650125 24.56201 8.040494 -0 25.64948 -0 8.44119 -11.16127 0.9427858 -2.452859 -23.29547 -7.27599 -0 24.72255 -0 -8.388376 -6.210205 18.64843 -1.775694 -1.792533 9.847092 -2.517297 8.815588 -1.800603 2.702333 21.61925 5.065785 1.404666 -14.85603 7.667835 0.9813597 -21.20496 10.61727 80.56636 21.05331 -5.009771 -0 0 27.16596 -26.36194 13.68113 13.74335 4.343317 -12.38827 -2.922998 -93.89133 22.73726 26.39833 0 0 -8.559222 -4.781314 6.476423 17.93412
29.35523 101.9213 273.6593 2.519292 -8.317134 -5.735491 -3.483245 22.72975 7.264639 -0 33.67894 -0 8.68423 -8.883583 -0.374757 -4.037289 -19.37938 -8.382975 -0 25.4166 -0 -8.143552 -6.811696 18.1402 -2.289574 -2.17571 9.524372 -2.502541 8.673282 -1.854486 2.782295 21.92114 5.05809 1.246193 -14.70878 7.917452 1.384612 -20.14316 10.33419 81.52291 21.22279 -6.213082 -0 0 25.30609 -25.90834 13.68248 13.28052 4.174179 -12.2989 -3.024323 -93.04721 23.21842 25.25164 0 0 -8.440962 -4.718588 6.645411 18.00094
29.94058 102.946 280.8497 2.757945 -8.917051 -4.885391 -3.684503 18.98862 6.212557 -0 42.03194 -0 8.537245 -7.256758 -2.078395 -5.334211 -14.42972 -9.204697 -0 25.7418 -0 -7.766693 -7.952334 17.58375 -2.66676 -2.057442 8.81071 -2.434384 8.667167 -2.037475 2.741938 22.35406 5.11334 1.023678 -14.46292 8.156462 1.935434 -18.99535 10.19996 82.74203 21.61688 -7.77575 -0 0 22.8874 -25.22997 13.7706 12.643 4.022033 -12.67568 -3.200429 -91.6765 23.75155 23.22017 0 0 -8.965444 -4.415687 6.921429 17.75555
30.48166 104.344 287.5592 2.81813 -9.607422 -3.762142 -3.322018 13.45816 5.068264 -0 48.83839 -0 8.028822 -6.55433 -3.77482 -6.151309 -8.795732 -9.730629 -0 25.22231 -0 -7.386472 -9.334501 16.9749 -2.824558 -1.5256 7.711941 -2.28112 8.703746 -2.418643 2.611497 22.87571 5.231439 0.7532616 -14.12457 8.40751 2.447557 -17.89787 10.14343 84.15195 22.14282 -9.495726 -0 0 20.37367 -24.38929 13.89357 11.95842 3.934619 -13.41182 -3.463021 -89.91104 24.26725 20.41584 0 0 -10.06456 -3.895644 7.29111 17.23209
30.96623 105.8994 293.7396 2.685768 -10.12625 -2.521591 -2.674654 6.728597 4.017917 -0 52.34135 -0 7.228669 -6.599226 -5.152102 -6.438072 -2.983904 -10.04464 -0 23.7126 -0 -7.129453 -10.65003 16.30023 -2.781897 -0.8321721 6.343098 -2.011255 8.67674 -3.037993 2.470723 23.41676 5.378936 0.4800107 -13.72483 8.688202 2.721168 -16.8765 10.04171 85.68314 22.68508 -11.27224 -0 0 18.13405 -23.46665 13.9883 11.32884 3.991719 -14.35007 -3.789574 -87.93819 24.69785 17.03724 0 0 -11.66905 -3.211465 7.737623 16.47208
31.41296 107.2606 299.4976 2.513891 -10.22595 -1.188147 -2.065944 -0.2105283 3.191073 -0 51.67803 -0 6.232458 -6.756104 -6.156046 -6.363421 2.477748 -10.28894 -0 21.43858 -0 -7.009277 -11.87442 15.50625 -2.677578 -0.3020645 4.902237 -1.648857 8.495164 -3.896167 2.421308 23.86984 5.48965 0.2620464 -13.33259 8.988338 2.587067 -15.84932 9.749331 87.23995 23.12479 -13.11109 -0 0 16.32593 -22.54532 13.98836 10.79175 4.267748 -15.33729 -4.111334 -85.93877 25.00423 13.33438 0 0 -13.72327 -2.433004 8.247704 15.49854
31.82377 108.1174 305.0671 2.4221 -9.906247 0.236627 -1.745363 -6.722498 2.618167 -0 47.059 -0 5.091209 -6.801308 -6.892224 -6.123624 7.378104 -10.52017 -0 18.91124 -0 -6.966702 -13.13597 14.61601 -2.655726 -0.01961533 3.574783 -1.236093 8.159409 -4.891558 2.51649 24.18419 5.489441 0.136158 -12.99725 9.247435 2.081897 -14.79288 9.279608 88.66942 23.41884 -14.97759 -0 0 14.84616 -21.6702 13.87531 10.30195 4.75833 -16.33035 -4.378723 -83.9913 25.189 9.51287 0 0 -16.11168 -1.596262 8.817025 14.32914
32.18272 108.3041 310.6841 2.474254 -9.288805 1.678045 -1.830618 -12.42862 2.223349 -0 39.38228 -0 3.821495 -6.822979 -7.490372 -5.892786 11.68273 -10.71692 -0 16.69162 -0 -6.943289 -14.54267 13.69722 -2.795149 0.06445237 2.51175 -0.8202638 7.722027 -5.854415 2.75036 24.34862 5.33998 0.1089214 -12.75658 9.40376 1.366431 -13.70385 8.746192 89.86505 23.58515 -16.81973 -0 0 13.47004 -20.83508 13.66658 9.77232 5.402498 -17.33737 -4.550889 -82.13936 25.26551 5.745089 0 0 -18.68035 -0.7104637 9.440548 12.99733
32.48175 107.8126 316.4078 2.67449 -8.527067 2.945709 -2.217719 -17.06515 1.832748 -0 30.17522 -0 2.433252 -7.07267 -8.02639 -5.801289 15.40796 -10.80725 -0 15.26856 -0 -6.929259 -16.05598 12.83237 -3.060148 0.03561957 1.818612 -0.45058 7.258582 -6.567792 3.04739 24.37821 5.075052 0.148048 -12.6478 9.433961 0.6739002 -12.56727 8.316729 90.84949 23.68158 -18.58949 -0 0 11.94068 -19.97036 13.40765 9.101049 6.091345 -18.3649 -4.580703 -80.46133 25.24043 2.210835 0 0 -21.23386 0.2282717 10.10196 11.57575
32.69955 106.8003 322.2469 2.905299 -7.781841 3.860812 -2.524049 -20.57318 1.332482 -0 21.2181 -0 0.9711087 -7.667201 -8.516814 -5.814166 18.56096 -10.76599 -0 14.94795 -0 -6.971278 -17.45598 12.09984 -3.328353 0.005993276 1.471392 -0.1363798 6.824435 -6.939859 3.332007 24.33962 4.758681 0.2174433 -12.66235 9.357948 0.1843248 -11.48281 8.092771 91.64067 23.76907 -20.16363 -0 0 10.19343 -19.0285 13.13947 8.270315 6.697888 -19.37729 -4.469746 -79.04414 25.13611 -0.8807216 0 0 -23.5065 1.188782 10.76335 10.16619
